<svg xmlns="http://www.w3.org/2000/svg" width="322" height="210" viewBox="0 0 322 210">
  <g id="Group_36770" data-name="Group 36770" transform="translate(-810 -4651)">
    <g id="Group_36769" data-name="Group 36769">
      <g id="Group_36721" data-name="Group 36721" transform="translate(810 4651)">
        <rect id="Rectangle_38156" data-name="Rectangle 38156" width="101" height="101" rx="3" transform="translate(0 0)" fill="#eb1c2d"/>
      </g>
      <g id="_1" data-name="1" transform="translate(822.35 4682.616)">
        <g id="Group_36713" data-name="Group 36713" transform="translate(61.792 0)">
          <path id="Path_38947" data-name="Path 38947" d="M32.96,15.631a2.73,2.73,0,1,1,2.732,2.732,2.732,2.732,0,0,1-2.732-2.732" transform="translate(-29.195 -12.901)" fill="#fff"/>
          <path id="Path_38948" data-name="Path 38948" d="M40.951,15.851a3.641,3.641,0,0,1,3.3,3.627V27.05a1.059,1.059,0,1,1-2.118,0V20.544c0-.239-.073-.574-.516-.574-.31,0-.368.33-.379.536V40a1.525,1.525,0,1,1-3.049,0V28.767a.409.409,0,0,0-.43-.445h0a.424.424,0,0,0-.441.445V40a1.52,1.52,0,1,1-3.04,0V20.506c-.009-.2-.078-.536-.381-.536-.452,0-.514.332-.514.574V27.05a1.059,1.059,0,1,1-2.118,0V19.478a3.64,3.64,0,0,1,3.311-3.627,1.626,1.626,0,0,1,.2-.018h5.97c.075,0,.14.011.211.018" transform="translate(-31.261 -9.336)" fill="#fff"/>
        </g>
        <g id="Group_36714" data-name="Group 36714" transform="translate(39.303 1.573)">
          <path id="Path_38949" data-name="Path 38949" d="M28.469,16.2a2.586,2.586,0,1,0-2.586,2.586A2.587,2.587,0,0,0,28.469,16.2" transform="translate(-18.456 -13.611)" fill="#fff"/>
          <path id="Path_38950" data-name="Path 38950" d="M23.328,18.535l-2.149,7s-.386,1.285.7,1.6,1.414-.928,1.414-.928l1.733-5.841s.093-.452.432-.355.208.578.208.578L22.654,31.538h2.81v7.838a1.346,1.346,0,0,0,2.692,0V31.538h.767v7.838a1.347,1.347,0,0,0,2.695,0V31.538h2.8L31.407,20.589s-.124-.479.213-.578.43.355.43.355l1.731,5.841s.328,1.252,1.414.928.7-1.6.7-1.6l-2.152-7s-.769-2.025-2.464-2.025H25.8c-1.7,0-2.471,2.025-2.471,2.025" transform="translate(-21.112 -10.086)" fill="#fff"/>
        </g>
        <g id="Group_36715" data-name="Group 36715" transform="translate(23.815 1.573)">
          <path id="Path_38951" data-name="Path 38951" d="M21.477,16.2a2.585,2.585,0,1,0-2.584,2.586A2.587,2.587,0,0,0,21.477,16.2" transform="translate(-11.466 -13.611)" fill="#fff"/>
          <path id="Path_38952" data-name="Path 38952" d="M16.337,18.535l-2.149,7s-.383,1.285.7,1.6,1.412-.928,1.412-.928l1.735-5.841s.093-.452.432-.355.213.578.213.578L15.666,31.538h2.805v7.838a1.347,1.347,0,0,0,2.695,0V31.538h.764v7.838a1.347,1.347,0,0,0,2.695,0V31.538H27.43L24.416,20.589s-.129-.479.208-.578.43.355.43.355l1.733,5.841s.33,1.252,1.412.928.707-1.6.707-1.6l-2.149-7s-.767-2.025-2.468-2.025h-5.48c-1.7,0-2.471,2.025-2.471,2.025" transform="translate(-14.122 -10.086)" fill="#fff"/>
        </g>
        <g id="Group_36716" data-name="Group 36716" transform="translate(52.761 14.337)">
          <path id="Path_38953" data-name="Path 38953" d="M30.734,23.674a2.152,2.152,0,1,0-2.156-2.154,2.15,2.15,0,0,0,2.156,2.154" transform="translate(-25.492 -19.371)" fill="#fff"/>
          <path id="Path_38954" data-name="Path 38954" d="M27.269,27.541a.737.737,0,0,0,.312,1.015.717.717,0,0,0,.924-.3l1.168-3.734s.2-.25.2.009v8.782h0a1.106,1.106,0,1,0,2.211,0V29.852s-.066-.49.326-.49.337.49.337.49v3.463a1.106,1.106,0,1,0,2.211,0V24.534c0-.259.135-.075.135-.075l.917,2.555a5.919,5.919,0,0,0,.521,1.19.818.818,0,0,0,.982-1.225l.009,0c-.033-.086-1.374-3.384-1.536-3.845-.479-1.416-1.363-1.4-2.218-1.429s-1.358,0-1.358,0-.541-.02-1.664.013-1.48.609-2.717,3.794c-.179.461-.771,1.943-.78,2.032Z" transform="translate(-27.186 -16.55)" fill="#fff"/>
        </g>
        <g id="Group_36718" data-name="Group 36718" transform="translate(0 0)">
          <g id="Group_36717" data-name="Group 36717" transform="translate(1.5)">
            <path id="Path_38955" data-name="Path 38955" d="M11.212,15.631A2.73,2.73,0,1,0,8.48,18.363a2.732,2.732,0,0,0,2.732-2.732" transform="translate(-1.985 -12.901)" fill="#fff"/>
            <path id="Path_38956" data-name="Path 38956" d="M7.358,15.851a3.643,3.643,0,0,0-3.306,3.627V27.05a1.059,1.059,0,0,0,2.118,0V20.544c0-.239.071-.574.516-.574.308,0,.372.33.386.536V40a1.52,1.52,0,1,0,3.04,0V28.767a.414.414,0,0,1,.434-.445h0a.415.415,0,0,1,.439.445V40a1.521,1.521,0,1,0,3.042,0V20.506c.011-.2.078-.536.386-.536.45,0,.514.332.514.574V27.05a1.059,1.059,0,1,0,2.118,0V19.478a3.641,3.641,0,0,0-3.308-3.627,1.846,1.846,0,0,0-.2-.018H7.569a1.871,1.871,0,0,0-.211.018" transform="translate(-4.052 -9.336)" fill="#fff"/>
          </g>
          <line id="Line_93" data-name="Line 93" x1="2.426" y2="12.854" transform="translate(0 18.815)" fill="none" stroke="#fff" stroke-linecap="round" stroke-miterlimit="10" stroke-width="1.307"/>
        </g>
        <g id="Group_36719" data-name="Group 36719" transform="translate(14.341 14.337)">
          <path id="Path_38957" data-name="Path 38957" d="M11.3,21.006a.784.784,0,0,0-1.449.417,1.419,1.419,0,0,0,.078.341l2.169,3.929a1.4,1.4,0,0,1,.131.516V34.64h.007a1.06,1.06,0,1,0,2.121,0V31.314s-.06-.472.321-.472.319.472.319.472V34.64a1.063,1.063,0,0,0,2.125,0V26.209a1.4,1.4,0,0,1,.131-.516l2.005-3.627a3.542,3.542,0,0,0,.246-.645.787.787,0,0,0-.784-.784A.776.776,0,0,0,18.05,21l-.011,0c-.06.053-1.064,1.841-1.4,2.174a.876.876,0,0,1-.665.315h-2.61a.866.866,0,0,1-.665-.315c-.335-.332-1.336-2.123-1.4-2.174Z" transform="translate(-9.847 -17.833)" fill="#fff"/>
          <path id="Path_38958" data-name="Path 38958" d="M13.206,23.674a2.152,2.152,0,1,0-2.154-2.154,2.15,2.15,0,0,0,2.154,2.154" transform="translate(-8.382 -19.371)" fill="#fff"/>
          <path id="Path_38959" data-name="Path 38959" d="M14,22.675l2.433,1.779,1.157,4.252H10.4l1.159-4.252Z" transform="translate(-9.169 -15.354)" fill="#fff"/>
        </g>
      </g>
    </g>
    <g id="Group_36723" data-name="Group 36723" transform="translate(1029.849 4651)">
      <rect id="Rectangle_38158" data-name="Rectangle 38158" width="101" height="101" rx="3" transform="translate(0.151 0)" fill="#279b48"/>
      <g id="_3" data-name="3" transform="translate(13.225 24.224)">
        <path id="Path_38960" data-name="Path 38960" d="M47.071,22.989c0-3.109-1.994-5.63-5.018-5.63-1.511,0-3.335,1.654-4.323,2.672-.991-1.018-2.693-2.674-4.206-2.674-3.021,0-5.137,2.522-5.137,5.634a5.706,5.706,0,0,0,1.6,3.983h0l7.748,7.759,7.736-7.753-.006-.006A5.7,5.7,0,0,0,47.071,22.989Z" transform="translate(27.027 4.434)" fill="#fff"/>
        <g id="Group_36720" data-name="Group 36720" transform="translate(0 0)">
          <path id="Path_38961" data-name="Path 38961" d="M43.164,58.834c-.027,0-.053,0-.08,0a1.273,1.273,0,0,1-1.174-1.054L37.974,34.859l-5.96,11.051a1.272,1.272,0,0,1-2.379-.423L27.105,27.8l-4.63,10.4a1.269,1.269,0,0,1-1.161.753H3.32a1.271,1.271,0,1,1,0-2.541H20.485l6.091-13.679A1.273,1.273,0,0,1,29,23.072l2.609,18.236,5.878-10.9a1.272,1.272,0,0,1,2.373.387L43.5,52.02,56.784,7.905a1.272,1.272,0,0,1,2.365-.187l6.987,14.487a1.272,1.272,0,1,1-2.291,1.107L58.278,11.772l-13.9,46.155A1.275,1.275,0,0,1,43.164,58.834Z" transform="translate(-2.047 -6.999)" fill="#fff"/>
        </g>
      </g>
    </g>
    <g id="Group_36722" data-name="Group 36722" transform="translate(921.424 4651)">
      <rect id="Rectangle_38157" data-name="Rectangle 38157" width="100" height="101" rx="3" transform="translate(-0.424 0)" fill="#c31f33"/>
      <g id="_4" data-name="4" transform="translate(22.05 26.128)">
        <path id="Path_38962" data-name="Path 38962" d="M25.008,18.907,6.508,8.221V42.784l18.5,5.577Z" transform="translate(-2.559 -5.159)" fill="#fff"/>
        <path id="Path_38963" data-name="Path 38963" d="M17.989,18.977v29.4l18.62-5.6V8.223Z" transform="translate(6.496 -5.157)" fill="#fff"/>
        <path id="Path_38964" data-name="Path 38964" d="M38.452,8.7a2.19,2.19,0,1,0-4.381,0v2.359H38.45V8.7Z" transform="translate(19.18 -6.509)" fill="#fff"/>
        <path id="Path_38965" data-name="Path 38965" d="M34.617,40.759h-.546l2.195,7.65,2.182-7.65h0V10.011H34.071V40.759Z" transform="translate(19.18 -3.747)" fill="#fff"/>
        <path id="Path_38966" data-name="Path 38966" d="M51.382,9.741,49.4,8.176V43.755L28.839,50.4H26.75L6.284,44.681V8.176L4.3,9.741V46.07l22.355,6.189h2.277L49.561,45.71l1.821-.533Z" transform="translate(-4.3 -5.194)" fill="#fff"/>
      </g>
    </g>
    <g id="Group_36724" data-name="Group 36724" transform="translate(1030.849 4760.242)">
      <rect id="Rectangle_38161" data-name="Rectangle 38161" width="101" height="101" rx="3" transform="translate(0.151 -0.242)" fill="#ef402b"/>
      <g id="_5" data-name="5" transform="translate(27.633 21.17)">
        <path id="Path_38967" data-name="Path 38967" d="M53.32,6.143H39.384a.178.178,0,0,0-.177.177v4.631a.178.178,0,0,0,.177.179h5.549l-6.16,6.162a18.246,18.246,0,1,0-13.611,32.45v5.335h-5.5a.177.177,0,0,0-.179.177v4.964a.176.176,0,0,0,.179.177h5.5v5.252a.178.178,0,0,0,.177.177H30.3a.179.179,0,0,0,.179-.177V60.4h5.5a.175.175,0,0,0,.175-.177V55.255a.176.176,0,0,0-.175-.177h-5.5V49.655A18.235,18.235,0,0,0,42.435,21.147l6.075-6.075v5.184a.178.178,0,0,0,.179.177H53.32a.18.18,0,0,0,.181-.177V6.318a.178.178,0,0,0-.181-.175M27.519,45.08A13.435,13.435,0,1,1,40.954,31.646,13.449,13.449,0,0,1,27.519,45.08" transform="translate(-9.267 -6.143)" fill="#fff"/>
        <path id="Path_38968" data-name="Path 38968" d="M30.87,16.416H14.576a.169.169,0,0,0-.177.158V20.52a.169.169,0,0,0,.177.162h16.3a.17.17,0,0,0,.181-.162V16.574a.174.174,0,0,0-.183-.158" transform="translate(-4.413 3.573)" fill="#fff"/>
        <path id="Path_38969" data-name="Path 38969" d="M30.87,20.036H14.576a.171.171,0,0,0-.177.163v3.944a.168.168,0,0,0,.177.16h16.3a.17.17,0,0,0,.181-.16V20.2a.176.176,0,0,0-.183-.163" transform="translate(-4.413 6.997)" fill="#fff"/>
      </g>
    </g>
    <g id="Group_36726" data-name="Group 36726" transform="translate(810 4760.242)">
      <rect id="Rectangle_38159" data-name="Rectangle 38159" width="101" height="101" rx="3" transform="translate(0 -0.242)" fill="#8f1838"/>
      <g id="_8" data-name="8" transform="translate(27.444 26.659)">
        <path id="Path_38970" data-name="Path 38970" d="M35.721,13.123,26.1,22.276a1.6,1.6,0,0,0-.553,1.375V49.305a.553.553,0,0,0,.553.548h9.937a.549.549,0,0,0,.547-.548V13.354c0-.3-.236-.854-.867-.231" transform="translate(5.41 -1.739)" fill="#fff"/>
        <path id="Path_38971" data-name="Path 38971" d="M18.232,20.65,8.608,29.8a1.592,1.592,0,0,0-.548,1.371V44.9a.55.55,0,0,0,.548.547h9.939a.551.551,0,0,0,.55-.547V20.878c0-.3-.241-.857-.865-.228" transform="translate(-4.817 2.66)" fill="#fff"/>
        <path id="Path_38972" data-name="Path 38972" d="M51.518,6.119a.267.267,0,0,0-.081-.209.274.274,0,0,0-.179-.076l-.051,0-.079,0L43.759,7.5l-.133.014a.31.31,0,0,0-.143.074.283.283,0,0,0,0,.4l.082.084L45.25,9.751l-16.7,16.7-7.711-7.711a.218.218,0,0,0-.314,0L18.44,20.83l0,0L6.076,33.191a.225.225,0,0,0,0,.312l2.1,2.093a.214.214,0,0,0,.311,0L20.69,23.4l5.6,5.6c.006.01.008.019.019.025L28.4,31.108a.221.221,0,0,0,.314,0L47.654,12.16l1.768,1.767a.275.275,0,0,0,.391,0,.258.258,0,0,0,.081-.182l0-.022L51.515,6.2Z" transform="translate(-6.013 -5.834)" fill="#fff"/>
        <path id="Path_38973" data-name="Path 38973" d="M26.99,21.679l-4.656,4.694a.22.22,0,0,1-.3-.013l-4.218-4.3c-.773-.77-.938-.146-.938.157V44.325a.548.548,0,0,0,.544.55h9.942a.551.551,0,0,0,.547-.55V21.851c0-.3-.239-.857-.921-.173" transform="translate(0.339 3.238)" fill="#fff"/>
      </g>
    </g>
    <g id="Group_36725" data-name="Group 36725" transform="translate(921.424 4760.242)">
      <rect id="Rectangle_38160" data-name="Rectangle 38160" width="100" height="101" rx="3" transform="translate(-0.424 -0.242)" fill="#f36d25"/>
      <path id="_9" data-name="9" d="M51.489,32.982l-9.994-5.769V15.676a.682.682,0,0,0-.34-.591L30.823,9.119a.682.682,0,0,0-.682,0L19.809,15.085a.686.686,0,0,0-.34.591V27.213L9.477,32.982a.681.681,0,0,0-.34.59V45.5a.681.681,0,0,0,.34.589l10.332,5.964a.672.672,0,0,0,.68,0l9.994-5.767,9.99,5.767a.679.679,0,0,0,.684,0L51.49,46.094a.681.681,0,0,0,.34-.589V33.571A.68.68,0,0,0,51.489,32.982ZM29.8,44.322l-8.288-4.785L29.8,34.75Zm9.65-16.716L31.165,32.39V22.823ZM29.8,32.39l-8.286-4.785L29.8,22.821Zm2.046,1.181L40.815,28.4l8.968,5.176-8.968,5.18Zm8.286-7.145L31.846,21.64l8.286-4.785ZM29.119,21.64l-8.286,4.787v-9.57Zm-9.65,28.648L10.5,45.11V34.752l8.968,5.18Zm1.364,0v-9.57L29.119,45.5Zm29.634-5.176L41.5,50.289V39.932l8.97-5.18Z" transform="translate(18.402 20.376)" fill="#fff"/>
    </g>
  </g>
</svg>
