<svg xmlns="http://www.w3.org/2000/svg" width="195.788" height="210.844" viewBox="0 0 195.788 210.844">
  <g id="Group_36712" data-name="Group 36712" transform="translate(-220.67 -4762.39)">
    <path id="Path_38824" data-name="Path 38824" d="M591.594,574.515a.479.479,0,0,0-.046-.384c-.424-.392-.2-.78,0-1.143.393-.71.316-.93-.437-1.116-.259-.064-.524-.238-.765-.2-.346.05-.88.166-.967.393-.284.75-.925.833-1.518,1.052-.532.2-1.047.45-1.59.6a3.8,3.8,0,0,1-1.458.2,2.986,2.986,0,0,0-2.015.377,1.771,1.771,0,0,1-1.376.22,1.138,1.138,0,0,0-1.24.09c-.542.351-1.066.733-1.612,1.078a1.133,1.133,0,0,1-.662.258c-.556-.1-1.091-.306-1.638-.453a.536.536,0,0,0-.374.024c-.5.288-.98.6-1.47.9a2.6,2.6,0,0,1-1.9.541A4.3,4.3,0,0,1,570,575.108c-.409-.532-.767-3.081-.945-3.559-.159-.426-.52-.778-.669-1.206-.345-.978-1.4-1.005-2.023-1.6-.042-.04-.18-.047-.128-.1a14.207,14.207,0,0,0-1.041-1.231c-.638-.606-1.4-1.1-1.972-1.754a2.917,2.917,0,0,0-1.586-1.193c-.206-.044-.349-.328-.552-.451-.4-.24-.816-.444-1.225-.662l.067-.047c-.351-.271-2.288-1.022-2.384-1.174a10.866,10.866,0,0,1-1.049-2.083c-.359-1-.534-2.066-.919-3.053a9.692,9.692,0,0,0-1.24-2.182,4.124,4.124,0,0,0-1.15-.774c-.572-.521-1.081-1.347-1.738-1.49-.808-.176-.664-.729-.783-1.109a16.317,16.317,0,0,1-.471-2.486c-.043-.292.055-.6.028-.9-.051-.529-.149-1.053-.231-1.614.448-.161.231-.457-.088-.759a3.079,3.079,0,0,1-1.1-2.244.587.587,0,0,0-.244-.443c-.935-.474-1.527-1.421-2.575-1.769a.86.86,0,0,1-.615-1.259c-.633-.264.05-2.167-.106-2.32-.482-.468-1.057-.849-1.492-1.354a10,10,0,0,1-.942-1.533,14.7,14.7,0,0,0-1.287-2.182,12.049,12.049,0,0,1-1.949-3.659c-.044-.117,1.038-2.823,1.152-3.3.109-.461.2-.925.307-1.386.022-.094.1-.178.111-.272.081-.582.174-1.163.213-1.748a3.629,3.629,0,0,0-.038-1.466c-.447-1.159-1.02-2.27-1.54-3.4-.172-.374-1.933-.3-2.587-.564a1.63,1.63,0,0,0-1.633.239.9.9,0,0,1-.778-.005c-.51-.283-.958-.676-1.455-.989-.135-.085-.428-.129-.513-.049-.413.389-.767.047-1.16,0a3.858,3.858,0,0,0-1.609.095,23.409,23.409,0,0,0-2.4,1.147,15.307,15.307,0,0,1-1.345.873,1.417,1.417,0,0,1-.853-.013,6.931,6.931,0,0,0-1.7-.446c-.682.03-1.193-.733-1.9-.326-.02.012-.1-.027-.114-.059-.225-.488-.7-.518-1.12-.545-1.474-.094-2.909-.986-4.426-.213-.108.054-.265.007-.388.007-.5-1.406-.7-1.513-2.119-1.381a3.5,3.5,0,0,1-1.107-.192,6.767,6.767,0,0,0-1.13-.321c-.637-.038-1.022-.255-1.076-.938-.012-.15-.143-.4-.242-.417-1.059-.131-1.963-.922-3.1-.727a11.845,11.845,0,0,1-1.478.387,4.748,4.748,0,0,0-2.822,1.264c-.794.607-1.279,2.194-.852,2.864.614.959.67,1.044-.011,1.852-1.023,1.213-1.893,1.8-3.31.74a16.659,16.659,0,0,0-1.789-1.122,8.239,8.239,0,0,0-3.5-1.07c-1.616-.121-2.823-.417-2.991-2.6-.038-.479-.174-.989-.886-.954a2.278,2.278,0,0,1-.9-.212c-.709-.281-1.385-.663-2.112-.879-.9-.266-1.807-.686-2.772-.147a.842.842,0,0,1-.661-.035c-1.081-.511-2.17-1.011-3.194-1.619a1.124,1.124,0,0,1-.369-1.021c.361-.554-.228-.525-.362-.648a.389.389,0,0,0-.669.231c-.046.169-.583.4-.669.328a2.382,2.382,0,0,1-.757-.979c-.145-.436.275-.63.63-.8a6.029,6.029,0,0,0,1.793-1.577c.672-.75-.318-2.625-.59-2.883a.826.826,0,0,1,.237-1.459c.794-.362-1.749-2.907-1.911-2.927s-2.031.049-2.585.689a.59.59,0,0,1-.358.144,15.03,15.03,0,0,0-1.672.175c-.311.07-.472.146-.728-.158a1.375,1.375,0,0,0-1.529-.308c-.241.245-1.045.3-1.221.04-.382-.559-.74-.305-1.161-.06a7.291,7.291,0,0,1-1.08.45,5.282,5.282,0,0,1-.909.305c-.21.038-.548.041-.643-.083a2.291,2.291,0,0,0-2.058-.754c-.77.016-1.539.238-2.307.235-.666,0-1.329-.235-1.913.3-.1.09-.319.055-.483.062-.331.014-.661.016-.992.025-.475.013-.952.043-1.427.033-.156,0-.339-.194-.463-.154a25.416,25.416,0,0,0-2.424.875,4.221,4.221,0,0,0-1.032.782c-.267.239-.463.482-.824.1-.086-.092-.423.026-.633.085-.163.046-.353.256-.454.213-.606-.257-.969.181-1.373.449-.232.154-.341.544-.576.629a4.013,4.013,0,0,1-2.656.426c-.747-.2-2.275-.2-2.889-.72-.1-.081-.3-.049-.455-.039-.451.034-.9.085-1.356.127a2.327,2.327,0,0,1-2.105-1.882c.013-.251-1.035-.432-1.4-.317a.774.774,0,0,0-.409.281c-.65,1.04-1.242,2.117-1.925,3.134a5.847,5.847,0,0,1-3.188,2.572c-1.287.384-2.714.5-3.66,1.663-.47.575-1.423.725-1.557,1.559a3.018,3.018,0,0,1-1.147,1.737,3.976,3.976,0,0,0-.937,1.3,12.269,12.269,0,0,0-.542,2.053.578.578,0,0,0,.131.456.952.952,0,0,1,.031,1.365c-.38.5-.859.93-1.244,1.429a5.86,5.86,0,0,1-2.208,1.868,15.747,15.747,0,0,0-1.594.949,5.835,5.835,0,0,1-1.362.793c-1.007.265-2.053.385-3.08.578a.918.918,0,0,0-.431.2,7.543,7.543,0,0,0-1.784,2.607,2.854,2.854,0,0,1-1.9,1.418,5.607,5.607,0,0,0-1.693,1.648c-.394.786-.774,1.577-1.166,2.364a4.71,4.71,0,0,1-.766,1.426c-.73.665-1.613,1.161-2.388,1.781a3.11,3.11,0,0,0-.784.993c-.322.63-.512,1.33-.848,1.95s-.793,1.191-1.233,1.835c-.608.08-.793.174-1.073.821a10.114,10.114,0,0,0-.551,3.186,9.332,9.332,0,0,0,.6,1.579,1.059,1.059,0,0,1,.572,1.61,6.619,6.619,0,0,0-.84,1.732.925.925,0,0,0,.042.839,4.875,4.875,0,0,1,.625,3.674,12.2,12.2,0,0,1-1.446,3.788,15.493,15.493,0,0,0-.658,2.084c-.474,1.664-1.771,6.127-1.508,6.892.114.332-.311,1.574-.289,2.088a6.593,6.593,0,0,1-.151,1.928.873.873,0,0,0,.451,1.095c.268.189.6.511.612.791.036.579,3.194,3.523,3.343,3.64a5.734,5.734,0,0,1,.447.387,4.3,4.3,0,0,1,.64.665,4.3,4.3,0,0,0,.985,1.358,17.62,17.62,0,0,1,2.773,4.84c.024.179-.176.389-.157.571.032.292.9.938,1.014,1.15.17.319.8,1.959,1.3,2.216a10.989,10.989,0,0,1,2.481,1.392,10.939,10.939,0,0,0,1.848,1.413c.067.039.086.154.147.217a5.121,5.121,0,0,0,.642.643c.52.384,1.08.715,1.6,1.1.965.715,1.474,1.9,2.594,2.469,1.374.7,2.717,1.462,4.1,2.139a1.409,1.409,0,0,0,.972-.07c.778-.287,1.521-.671,2.3-.963.973-.366,1.956-.718,2.957-1,.467-.13,1-.009,1.479-.115a12.711,12.711,0,0,1,5.763.173,10.316,10.316,0,0,1,2.319.757,1.164,1.164,0,0,0,1.147.1c.7-.319,1.4-.629,2.116-.914a16.481,16.481,0,0,0,1.955-.738,48.422,48.422,0,0,1,5.8-2.346,29.157,29.157,0,0,1,7.128-.558,2.87,2.87,0,0,1,2.161.886,10.368,10.368,0,0,1,2.018,3.637c.322.861.9,1.69,1.874,1.719a25.7,25.7,0,0,0,3.629-.333c.754-.085,1.506-.188,2.253-.322.3-.054,2.395,1.434,3.122,1.752a9.727,9.727,0,0,1,1.943,2.2c.052.1-.01.262-.03.394-.071.485-.14.971-.226,1.454-.19,1.073-1.634,5.362-1.442,6.073a4.264,4.264,0,0,1-.059,1.272c-.077,1.49-1.8,2.116-1.718,2.287a25.525,25.525,0,0,0,1.648,3.369,8.936,8.936,0,0,0,2.521,2.892,6.592,6.592,0,0,1,1.322,1.207c.493.548.886,1.185,1.385,1.726s1.123.954,1.6,1.507a10.939,10.939,0,0,1,.911,1.516,8.9,8.9,0,0,0,.588.895c.3.392-.157.761-.028,1.1.185.482,1.875,3.559,2.216,4.715a60.292,60.292,0,0,1,.884,6.089,7.737,7.737,0,0,0,1.589,3.6,2.048,2.048,0,0,1,.45,1.133,12.352,12.352,0,0,1-.408,2.862c-.2.685-.5,1.468-1.413,1.632-.093.017-.18.136-.246.225q-.779,1.046-1.545,2.1a.289.289,0,0,0-.038.2,3.072,3.072,0,0,1-.369,1.633,9.16,9.16,0,0,0-.128,1.273c-.267,1.1-1.649,6.38-1.648,6.645,0,.7.036,1.4.106,2.1a6.218,6.218,0,0,0,.315,1.75,8.984,8.984,0,0,0,1.49,2.286,21.525,21.525,0,0,1,2,3.375c.24.421.472.848.685,1.284a24.2,24.2,0,0,0,1.112,2.3c.649,1.032,1.473,1.958,2.1,3,.33.548.5,3.538.611,4.148a1.077,1.077,0,0,1-.036.536c-.339.921.339,1.6.545,2.394a7.823,7.823,0,0,1,.435,1.284,5.379,5.379,0,0,0,.31,2.456c.058.105-.031.286.013.409.115.315-.214.832.421.933.062.01.092.289.119.446a3.644,3.644,0,0,0,.122.781c.4.935.8,1.87,1.269,2.772a4.294,4.294,0,0,0,.833,1.006,18.149,18.149,0,0,1,1.8,1.735,17.334,17.334,0,0,1,1.86,4.083,15.977,15.977,0,0,0,2,3.617,4.654,4.654,0,0,1,.953,2.782,2.821,2.821,0,0,1-.327.936l-.53-.291c-.53.752,1.279,3.087,1.014,3.789-.118.312,1.191,1.474,1.64,1.358.083-.021.2.11.294.1.516-.045.454.551.791.7a6.864,6.864,0,0,0,2.91-.375,12.691,12.691,0,0,1,1.731-.251c.778-.18,1.7.213,2.333-.639a1.407,1.407,0,0,1,.966-.412c.606-.032,1.221.112,1.831.1.384-.008.783-.281,1.143-.227.742.112,1.458.382,2.192.551.3.069.844.145.89.045.358-.8.874-.6,1.466-.369.232.088,1.041-1.127,1.582-.916,1.266.492,2.247-.133,3.209-.73.878-.545,1.676-1.222,2.5-1.855.84-.647,1.692-1.28,2.489-1.977a15.726,15.726,0,0,1,1.571-1.464,13.95,13.95,0,0,0,3.96-4.926,5.768,5.768,0,0,1,2.346-2.5,3.748,3.748,0,0,0,2.053-2.4c.487-1.471.9-2.969,1.294-4.469a6.831,6.831,0,0,0-.244-2.172c-.013-.677.463-.967.96-1.171a31.668,31.668,0,0,1,3.927-1.483,4.257,4.257,0,0,0,2.783-1.918c.238-.4.551-.936.078-1.457a.549.549,0,0,1-.056-.45c.155-.507.355-1,.518-1.506a1.774,1.774,0,0,0,.083-.563c-.005-.354-.085-.71-.059-1.06.038-.489.483-1.055-.335-1.333-.031-.011-.413-1.994-.491-2.336-.129-.565-.032-1.4-.376-1.654-.922-.674-.466-1.446-.44-2.2,0-.043.027-.085.019-.065a4.156,4.156,0,0,0,.727-.384c.676-.561,1.3-1.178,2-1.714a7.723,7.723,0,0,1,1.209-.62,3.187,3.187,0,0,0,.809-.464c.266-.264.41-.65.668-.926a21.375,21.375,0,0,1,1.928-1.928,11.939,11.939,0,0,1,3.9-1.821,4.682,4.682,0,0,1,1.148-.117c.414-.317.829-.641,1.252-.956.575-.428,1.268-.671,1.669-1.363a8.642,8.642,0,0,1,1.439-1.85,6.136,6.136,0,0,0,1.252-2.73c.209-.606-.213-1.168-.374-1.749a9.929,9.929,0,0,1-.063-3.061c.042-.794.462-1.665.244-2.352a14.739,14.739,0,0,1-.37-3.043c.249-.043,0-3.081-.583-3.35-.349-.162-.837-.339-.95-.63a13.868,13.868,0,0,1-.481-2.14c-.048-.223-.121-.44-.178-.662-.249-.964.265-3.582-.089-3.259a4.689,4.689,0,0,1,.116-2.223c.327-.565.136-.868-.484-1.114a.748.748,0,0,1-.253-.225c-.328-.392-.65-.789-.975-1.183a1.057,1.057,0,0,1-.1-.558,2.282,2.282,0,0,1-.063-.708c.277-.947.979-1.719,1.073-2.764.031-.345.5-.631.692-.985.483-.9.909-1.819,1.38-2.721.167-.321.44-.591.583-.919a3.5,3.5,0,0,0,.405-1.344c-.007-.6.145-.909.766-.981a.963.963,0,0,0,.491-.155,25.137,25.137,0,0,0,2.088-1.867c.569-.606.979-1.361,1.525-1.991q2.611-3.007,5.278-5.963a8.625,8.625,0,0,1,1.212-1.078c1.012-.77,2.034-1.528,3.076-2.259a21.682,21.682,0,0,0,2.283-1.509c1.128-1.031,2.154-2.176,3.192-3.3a23.192,23.192,0,0,0,1.9-2.27c.863-1.218,1.676-2.476,2.443-3.757a8.752,8.752,0,0,0,1.2-2.519,8.138,8.138,0,0,1,1.079-2.693,4.317,4.317,0,0,0,.919-2.188c.008-.238.3-.473.478-.7.08-.1.233-.147.295-.253.5-.869.563-1.948,1.334-2.711a1.881,1.881,0,0,0,.44-1.085c.094-.893.1-1.8.14-2.783C591.5,576.757,591.422,575.241,591.594,574.515Z" transform="translate(-175.817 4263.672)" fill="#eee" stroke="#e0e0e0" stroke-width="1" fill-rule="evenodd"/>
    <path id="Path_38825" data-name="Path 38825" d="M1754.717,1655a9.729,9.729,0,0,0-.227-3.555,11.256,11.256,0,0,0-.415-1.519c-.341-.9-1.08-1.61-1.2-2.619-.011-.086-.369-.228-.506-.178a10.278,10.278,0,0,0-1.17,2.862,2.963,2.963,0,0,1-.365,1.041c-.058.135-.766.018-.875-.042a1.556,1.556,0,0,1-.211.532c0-.246-.851.25-1.088-.023l-.256.022c-.275.682-.594,1.351-.8,2.052a2.506,2.506,0,0,1-.457,1c-.416.448-.789.935-1.194,1.392a3.213,3.213,0,0,1-.642.605c-.462.292-.952.542-1.439.792-.5.258-1,.521-1.527.735-.425.174-1.1-.275-1.286.524-.005.025-.136.051-.188.029a1.283,1.283,0,0,0-1.531.488.941.941,0,0,1-.622.146c-.305,0-1,.131-.993.215a4.136,4.136,0,0,1-1.209,2.742,2.559,2.559,0,0,0-.532,1.259,7.58,7.58,0,0,0,.118,1.84,16.181,16.181,0,0,1,.375,1.81,7.6,7.6,0,0,0,.311,1.77,4.015,4.015,0,0,1-.23,2.006c-.106.366-.547.62-.764.969-.365.584-.669,1.205-1.006,1.806-.1.184-.242.515-.339.506-.712-.069-.773.457-.938.919a1.281,1.281,0,0,1-.318.563,1.873,1.873,0,0,0-.505,1.831,5.232,5.232,0,0,0,.131.928c.106.4.271.786.393,1.185.085.276.141.563.21.845-.026.233.2.439.175.616-.082.659-.273,1.305-.363,1.965a1.128,1.128,0,0,0,.374,1.225.482.482,0,0,1,.153.35,1.956,1.956,0,0,0,1.776,2.07,1.437,1.437,0,0,1,.614.388,2.115,2.115,0,0,0,2.523.26,4.915,4.915,0,0,1,2.073-.617,2.2,2.2,0,0,0,1.884-.837,21.252,21.252,0,0,0,1.363-2.553,7.041,7.041,0,0,0,.431-.824c.47-1.293.862-2.617,1.388-3.885.777-1.873,1.64-3.71,2.476-5.557.293-.647.639-1.27.925-1.921.724-1.647,1.457-3.293,2.13-4.962a3.269,3.269,0,0,0,.49-2.021,1.948,1.948,0,0,1,.917-1.97c-.038.236-.07.434-.1.649a1.2,1.2,0,0,0,.851-1.4l-.655.49c.03-.168.038-.218.049-.269.128-.585.536-1.319.32-1.72-.344-.645.1-1.7.168-1.572.1.2.1.443.211.626.137.224.343.562.521.563a1.031,1.031,0,0,0,.67-.457,6.627,6.627,0,0,0,.33-.867,1.762,1.762,0,0,0-.049-1.776A2.564,2.564,0,0,1,1754.717,1655Z" transform="translate(-1342.879 3261.031)" fill="#eee" stroke="#e0e0e0" stroke-width="1" fill-rule="evenodd"/>
    <circle id="Ellipse_248" data-name="Ellipse 248" cx="4" cy="4" r="4" transform="translate(353.152 4889.355)" fill="#1976d2"/>
    <circle id="Ellipse_249" data-name="Ellipse 249" cx="4" cy="4" r="4" transform="translate(372.441 4879.065)" fill="#1976d2"/>
    <circle id="Ellipse_254" data-name="Ellipse 254" cx="4" cy="4" r="4" transform="translate(254.544 4833.479)" fill="#1976d2"/>
    <circle id="Ellipse_250" data-name="Ellipse 250" cx="4" cy="4" r="4" transform="translate(359.438 4866.635)" fill="#1976d2"/>
    <circle id="Ellipse_251" data-name="Ellipse 251" cx="4" cy="4" r="4" transform="translate(336.441 4911.214)" fill="#1976d2"/>
    <circle id="Ellipse_252" data-name="Ellipse 252" cx="4" cy="4" r="4" transform="translate(376.586 4863.49)" fill="#1976d2"/>
    <circle id="Ellipse_253" data-name="Ellipse 253" cx="4" cy="4" r="4" transform="translate(346.862 4877.493)" fill="#1976d2"/>
  </g>
</svg>
