<svg xmlns="http://www.w3.org/2000/svg" width="101" height="101" viewBox="0 0 101 101">
  <g id="Group_36769" data-name="Group 36769" transform="translate(-810 -4651)">
    <g id="Group_36721" data-name="Group 36721" transform="translate(810 4651)">
      <rect id="Rectangle_38156" data-name="Rectangle 38156" width="101" height="101" rx="3" transform="translate(0 0)" fill="#eb1c2d"/>
    </g>
    <g id="_1" data-name="1" transform="translate(822.35 4682.616)">
      <g id="Group_36713" data-name="Group 36713" transform="translate(61.792 0)">
        <path id="Path_38947" data-name="Path 38947" d="M32.96,15.631a2.73,2.73,0,1,1,2.732,2.732,2.732,2.732,0,0,1-2.732-2.732" transform="translate(-29.195 -12.901)" fill="#fff"/>
        <path id="Path_38948" data-name="Path 38948" d="M40.951,15.851a3.641,3.641,0,0,1,3.3,3.627V27.05a1.059,1.059,0,1,1-2.118,0V20.544c0-.239-.073-.574-.516-.574-.31,0-.368.33-.379.536V40a1.525,1.525,0,1,1-3.049,0V28.767a.409.409,0,0,0-.43-.445h0a.424.424,0,0,0-.441.445V40a1.52,1.52,0,1,1-3.04,0V20.506c-.009-.2-.078-.536-.381-.536-.452,0-.514.332-.514.574V27.05a1.059,1.059,0,1,1-2.118,0V19.478a3.64,3.64,0,0,1,3.311-3.627,1.626,1.626,0,0,1,.2-.018h5.97c.075,0,.14.011.211.018" transform="translate(-31.261 -9.336)" fill="#fff"/>
      </g>
      <g id="Group_36714" data-name="Group 36714" transform="translate(39.303 1.573)">
        <path id="Path_38949" data-name="Path 38949" d="M28.469,16.2a2.586,2.586,0,1,0-2.586,2.586A2.587,2.587,0,0,0,28.469,16.2" transform="translate(-18.456 -13.611)" fill="#fff"/>
        <path id="Path_38950" data-name="Path 38950" d="M23.328,18.535l-2.149,7s-.386,1.285.7,1.6,1.414-.928,1.414-.928l1.733-5.841s.093-.452.432-.355.208.578.208.578L22.654,31.538h2.81v7.838a1.346,1.346,0,0,0,2.692,0V31.538h.767v7.838a1.347,1.347,0,0,0,2.695,0V31.538h2.8L31.407,20.589s-.124-.479.213-.578.43.355.43.355l1.731,5.841s.328,1.252,1.414.928.7-1.6.7-1.6l-2.152-7s-.769-2.025-2.464-2.025H25.8c-1.7,0-2.471,2.025-2.471,2.025" transform="translate(-21.112 -10.086)" fill="#fff"/>
      </g>
      <g id="Group_36715" data-name="Group 36715" transform="translate(23.815 1.573)">
        <path id="Path_38951" data-name="Path 38951" d="M21.477,16.2a2.585,2.585,0,1,0-2.584,2.586A2.587,2.587,0,0,0,21.477,16.2" transform="translate(-11.466 -13.611)" fill="#fff"/>
        <path id="Path_38952" data-name="Path 38952" d="M16.337,18.535l-2.149,7s-.383,1.285.7,1.6,1.412-.928,1.412-.928l1.735-5.841s.093-.452.432-.355.213.578.213.578L15.666,31.538h2.805v7.838a1.347,1.347,0,0,0,2.695,0V31.538h.764v7.838a1.347,1.347,0,0,0,2.695,0V31.538H27.43L24.416,20.589s-.129-.479.208-.578.43.355.43.355l1.733,5.841s.33,1.252,1.412.928.707-1.6.707-1.6l-2.149-7s-.767-2.025-2.468-2.025h-5.48c-1.7,0-2.471,2.025-2.471,2.025" transform="translate(-14.122 -10.086)" fill="#fff"/>
      </g>
      <g id="Group_36716" data-name="Group 36716" transform="translate(52.761 14.337)">
        <path id="Path_38953" data-name="Path 38953" d="M30.734,23.674a2.152,2.152,0,1,0-2.156-2.154,2.15,2.15,0,0,0,2.156,2.154" transform="translate(-25.492 -19.371)" fill="#fff"/>
        <path id="Path_38954" data-name="Path 38954" d="M27.269,27.541a.737.737,0,0,0,.312,1.015.717.717,0,0,0,.924-.3l1.168-3.734s.2-.25.2.009v8.782h0a1.106,1.106,0,1,0,2.211,0V29.852s-.066-.49.326-.49.337.49.337.49v3.463a1.106,1.106,0,1,0,2.211,0V24.534c0-.259.135-.075.135-.075l.917,2.555a5.919,5.919,0,0,0,.521,1.19.818.818,0,0,0,.982-1.225l.009,0c-.033-.086-1.374-3.384-1.536-3.845-.479-1.416-1.363-1.4-2.218-1.429s-1.358,0-1.358,0-.541-.02-1.664.013-1.48.609-2.717,3.794c-.179.461-.771,1.943-.78,2.032Z" transform="translate(-27.186 -16.55)" fill="#fff"/>
      </g>
      <g id="Group_36718" data-name="Group 36718" transform="translate(0 0)">
        <g id="Group_36717" data-name="Group 36717" transform="translate(1.5)">
          <path id="Path_38955" data-name="Path 38955" d="M11.212,15.631A2.73,2.73,0,1,0,8.48,18.363a2.732,2.732,0,0,0,2.732-2.732" transform="translate(-1.985 -12.901)" fill="#fff"/>
          <path id="Path_38956" data-name="Path 38956" d="M7.358,15.851a3.643,3.643,0,0,0-3.306,3.627V27.05a1.059,1.059,0,0,0,2.118,0V20.544c0-.239.071-.574.516-.574.308,0,.372.33.386.536V40a1.52,1.52,0,1,0,3.04,0V28.767a.414.414,0,0,1,.434-.445h0a.415.415,0,0,1,.439.445V40a1.521,1.521,0,1,0,3.042,0V20.506c.011-.2.078-.536.386-.536.45,0,.514.332.514.574V27.05a1.059,1.059,0,1,0,2.118,0V19.478a3.641,3.641,0,0,0-3.308-3.627,1.846,1.846,0,0,0-.2-.018H7.569a1.871,1.871,0,0,0-.211.018" transform="translate(-4.052 -9.336)" fill="#fff"/>
        </g>
        <line id="Line_93" data-name="Line 93" x1="2.426" y2="12.854" transform="translate(0 18.815)" fill="none" stroke="#fff" stroke-linecap="round" stroke-miterlimit="10" stroke-width="1.307"/>
      </g>
      <g id="Group_36719" data-name="Group 36719" transform="translate(14.341 14.337)">
        <path id="Path_38957" data-name="Path 38957" d="M11.3,21.006a.784.784,0,0,0-1.449.417,1.419,1.419,0,0,0,.078.341l2.169,3.929a1.4,1.4,0,0,1,.131.516V34.64h.007a1.06,1.06,0,1,0,2.121,0V31.314s-.06-.472.321-.472.319.472.319.472V34.64a1.063,1.063,0,0,0,2.125,0V26.209a1.4,1.4,0,0,1,.131-.516l2.005-3.627a3.542,3.542,0,0,0,.246-.645.787.787,0,0,0-.784-.784A.776.776,0,0,0,18.05,21l-.011,0c-.06.053-1.064,1.841-1.4,2.174a.876.876,0,0,1-.665.315h-2.61a.866.866,0,0,1-.665-.315c-.335-.332-1.336-2.123-1.4-2.174Z" transform="translate(-9.847 -17.833)" fill="#fff"/>
        <path id="Path_38958" data-name="Path 38958" d="M13.206,23.674a2.152,2.152,0,1,0-2.154-2.154,2.15,2.15,0,0,0,2.154,2.154" transform="translate(-8.382 -19.371)" fill="#fff"/>
        <path id="Path_38959" data-name="Path 38959" d="M14,22.675l2.433,1.779,1.157,4.252H10.4l1.159-4.252Z" transform="translate(-9.169 -15.354)" fill="#fff"/>
      </g>
    </g>
  </g>
</svg>
