<svg xmlns="http://www.w3.org/2000/svg" width="100" height="101" viewBox="0 0 100 101">
  <g id="Group_36725" data-name="Group 36725" transform="translate(0.424 0.242)">
    <rect id="Rectangle_38160" data-name="Rectangle 38160" width="100" height="101" rx="3" transform="translate(-0.424 -0.242)" fill="#f36d25"/>
    <path id="_9" data-name="9" d="M51.489,32.982l-9.994-5.769V15.676a.682.682,0,0,0-.34-.591L30.823,9.119a.682.682,0,0,0-.682,0L19.809,15.085a.686.686,0,0,0-.34.591V27.213L9.477,32.982a.681.681,0,0,0-.34.59V45.5a.681.681,0,0,0,.34.589l10.332,5.964a.672.672,0,0,0,.68,0l9.994-5.767,9.99,5.767a.679.679,0,0,0,.684,0L51.49,46.094a.681.681,0,0,0,.34-.589V33.571A.68.68,0,0,0,51.489,32.982ZM29.8,44.322l-8.288-4.785L29.8,34.75Zm9.65-16.716L31.165,32.39V22.823ZM29.8,32.39l-8.286-4.785L29.8,22.821Zm2.046,1.181L40.815,28.4l8.968,5.176-8.968,5.18Zm8.286-7.145L31.846,21.64l8.286-4.785ZM29.119,21.64l-8.286,4.787v-9.57Zm-9.65,28.648L10.5,45.11V34.752l8.968,5.18Zm1.364,0v-9.57L29.119,45.5Zm29.634-5.176L41.5,50.289V39.932l8.97-5.18Z" transform="translate(18.402 20.376)" fill="#fff"/>
  </g>
</svg>
