<svg xmlns="http://www.w3.org/2000/svg" width="101" height="101" viewBox="0 0 101 101">
  <g id="Group_36726" data-name="Group 36726" transform="translate(0 0.242)">
    <rect id="Rectangle_38159" data-name="Rectangle 38159" width="101" height="101" rx="3" transform="translate(0 -0.242)" fill="#8f1838"/>
    <g id="_8" data-name="8" transform="translate(27.444 26.659)">
      <path id="Path_38970" data-name="Path 38970" d="M35.721,13.123,26.1,22.276a1.6,1.6,0,0,0-.553,1.375V49.305a.553.553,0,0,0,.553.548h9.937a.549.549,0,0,0,.547-.548V13.354c0-.3-.236-.854-.867-.231" transform="translate(5.41 -1.739)" fill="#fff"/>
      <path id="Path_38971" data-name="Path 38971" d="M18.232,20.65,8.608,29.8a1.592,1.592,0,0,0-.548,1.371V44.9a.55.55,0,0,0,.548.547h9.939a.551.551,0,0,0,.55-.547V20.878c0-.3-.241-.857-.865-.228" transform="translate(-4.817 2.66)" fill="#fff"/>
      <path id="Path_38972" data-name="Path 38972" d="M51.518,6.119a.267.267,0,0,0-.081-.209.274.274,0,0,0-.179-.076l-.051,0-.079,0L43.759,7.5l-.133.014a.31.31,0,0,0-.143.074.283.283,0,0,0,0,.4l.082.084L45.25,9.751l-16.7,16.7-7.711-7.711a.218.218,0,0,0-.314,0L18.44,20.83l0,0L6.076,33.191a.225.225,0,0,0,0,.312l2.1,2.093a.214.214,0,0,0,.311,0L20.69,23.4l5.6,5.6c.006.01.008.019.019.025L28.4,31.108a.221.221,0,0,0,.314,0L47.654,12.16l1.768,1.767a.275.275,0,0,0,.391,0,.258.258,0,0,0,.081-.182l0-.022L51.515,6.2Z" transform="translate(-6.013 -5.834)" fill="#fff"/>
      <path id="Path_38973" data-name="Path 38973" d="M26.99,21.679l-4.656,4.694a.22.22,0,0,1-.3-.013l-4.218-4.3c-.773-.77-.938-.146-.938.157V44.325a.548.548,0,0,0,.544.55h9.942a.551.551,0,0,0,.547-.55V21.851c0-.3-.239-.857-.921-.173" transform="translate(0.339 3.238)" fill="#fff"/>
    </g>
  </g>
</svg>
