<svg xmlns="http://www.w3.org/2000/svg" width="101" height="101" viewBox="0 0 101 101">
  <g id="Group_36724" data-name="Group 36724" transform="translate(-0.151 0.242)">
    <rect id="Rectangle_38161" data-name="Rectangle 38161" width="101" height="101" rx="3" transform="translate(0.151 -0.242)" fill="#ef402b"/>
    <g id="_5" data-name="5" transform="translate(27.633 21.17)">
      <path id="Path_38967" data-name="Path 38967" d="M53.32,6.143H39.384a.178.178,0,0,0-.177.177v4.631a.178.178,0,0,0,.177.179h5.549l-6.16,6.162a18.246,18.246,0,1,0-13.611,32.45v5.335h-5.5a.177.177,0,0,0-.179.177v4.964a.176.176,0,0,0,.179.177h5.5v5.252a.178.178,0,0,0,.177.177H30.3a.179.179,0,0,0,.179-.177V60.4h5.5a.175.175,0,0,0,.175-.177V55.255a.176.176,0,0,0-.175-.177h-5.5V49.655A18.235,18.235,0,0,0,42.435,21.147l6.075-6.075v5.184a.178.178,0,0,0,.179.177H53.32a.18.18,0,0,0,.181-.177V6.318a.178.178,0,0,0-.181-.175M27.519,45.08A13.435,13.435,0,1,1,40.954,31.646,13.449,13.449,0,0,1,27.519,45.08" transform="translate(-9.267 -6.143)" fill="#fff"/>
      <path id="Path_38968" data-name="Path 38968" d="M30.87,16.416H14.576a.169.169,0,0,0-.177.158V20.52a.169.169,0,0,0,.177.162h16.3a.17.17,0,0,0,.181-.162V16.574a.174.174,0,0,0-.183-.158" transform="translate(-4.413 3.573)" fill="#fff"/>
      <path id="Path_38969" data-name="Path 38969" d="M30.87,20.036H14.576a.171.171,0,0,0-.177.163v3.944a.168.168,0,0,0,.177.16h16.3a.17.17,0,0,0,.181-.16V20.2a.176.176,0,0,0-.183-.163" transform="translate(-4.413 6.997)" fill="#fff"/>
    </g>
  </g>
</svg>
