<svg xmlns="http://www.w3.org/2000/svg" width="101" height="101" viewBox="0 0 101 101">
  <g id="Group_36723" data-name="Group 36723" transform="translate(-0.151)">
    <rect id="Rectangle_38158" data-name="Rectangle 38158" width="101" height="101" rx="3" transform="translate(0.151 0)" fill="#279b48"/>
    <g id="_3" data-name="3" transform="translate(13.225 24.224)">
      <path id="Path_38960" data-name="Path 38960" d="M47.071,22.989c0-3.109-1.994-5.63-5.018-5.63-1.511,0-3.335,1.654-4.323,2.672-.991-1.018-2.693-2.674-4.206-2.674-3.021,0-5.137,2.522-5.137,5.634a5.706,5.706,0,0,0,1.6,3.983h0l7.748,7.759,7.736-7.753-.006-.006A5.7,5.7,0,0,0,47.071,22.989Z" transform="translate(27.027 4.434)" fill="#fff"/>
      <g id="Group_36720" data-name="Group 36720" transform="translate(0 0)">
        <path id="Path_38961" data-name="Path 38961" d="M43.164,58.834c-.027,0-.053,0-.08,0a1.273,1.273,0,0,1-1.174-1.054L37.974,34.859l-5.96,11.051a1.272,1.272,0,0,1-2.379-.423L27.105,27.8l-4.63,10.4a1.269,1.269,0,0,1-1.161.753H3.32a1.271,1.271,0,1,1,0-2.541H20.485l6.091-13.679A1.273,1.273,0,0,1,29,23.072l2.609,18.236,5.878-10.9a1.272,1.272,0,0,1,2.373.387L43.5,52.02,56.784,7.905a1.272,1.272,0,0,1,2.365-.187l6.987,14.487a1.272,1.272,0,1,1-2.291,1.107L58.278,11.772l-13.9,46.155A1.275,1.275,0,0,1,43.164,58.834Z" transform="translate(-2.047 -6.999)" fill="#fff"/>
      </g>
    </g>
  </g>
</svg>
